<svg width="443" height="511" viewBox="0 0 443 511" fill="none" xmlns="http://www.w3.org/2000/svg">
<g clip-path="url(#clip0)">
<path d="M345.874 59.4249C387.23 85.4559 426.951 111.859 438.997 148.971C450.721 185.774 434.436 233.646 419.787 272.73C404.816 311.801 391.134 342.084 373.548 369.119C355.962 396.154 334.484 419.941 308.111 444.014C281.738 467.789 250.482 492.208 212.682 503.612C174.598 515.004 129.994 514.037 95.4784 494.824C61.2852 475.276 36.8703 437.803 20.2632 399.377C3.99078 360.628 -4.8085 320.9 2.67708 285.721C10.1131 250.232 34.2677 219.292 48.2598 175.982C62.2891 133.018 65.8707 77.3367 92.6156 43.0998C119.645 8.59022 169.454 -4.77234 215.694 1.42551C261.933 7.62335 304.542 33.3692 345.874 59.4249Z" fill="#FF8923" fill-opacity="0.4"/>
<path d="M377.662 123.771V133.142C377.747 134.86 377.15 136.541 376.001 137.82C374.852 139.099 373.244 139.873 371.528 139.972H151.93C151.075 139.931 150.236 139.721 149.462 139.356C148.687 138.99 147.992 138.475 147.417 137.841C146.841 137.207 146.397 136.465 146.108 135.659C145.819 134.853 145.692 133.998 145.733 133.142V123.771C145.733 110.024 139.425 99.1159 127.044 93.9593C126.718 93.8146 126.448 93.5661 126.277 93.2525C126.106 92.9388 126.043 92.5775 126.098 92.2245C126.153 91.8716 126.323 91.5466 126.581 91.2999C126.84 91.0533 127.172 90.8988 127.528 90.8604H342.577C342.807 90.8852 343.04 90.8852 343.271 90.8604H345.204C348.833 90.8602 352.437 91.472 355.862 92.6702C356.024 92.7446 356.185 92.7941 356.346 92.8561C362.63 95.2155 368.041 99.4427 371.852 104.969C375.663 110.496 377.691 117.057 377.662 123.771Z" fill="#CCEEFF"/>
<g style="mix-blend-mode:soft-light" opacity="0.5">
<path d="M355.862 92.6826C353.158 94.1313 350.729 96.0446 348.687 98.335C344.055 103.718 341.575 110.622 341.722 117.722V140.034H151.93C151.075 139.993 150.236 139.783 149.462 139.418C148.687 139.052 147.992 138.537 147.417 137.903C146.841 137.269 146.397 136.527 146.108 135.721C145.819 134.915 145.692 134.06 145.733 133.204V123.833C145.733 110.086 139.425 99.1779 127.044 94.0213C126.718 93.8765 126.448 93.6281 126.277 93.3145C126.106 93.0008 126.043 92.6395 126.098 92.2865C126.153 91.9335 126.323 91.6086 126.581 91.3619C126.84 91.1153 127.172 90.9608 127.528 90.9224H342.577C342.807 90.9472 343.04 90.9472 343.271 90.9224H345.204C348.83 90.9063 352.434 91.5013 355.862 92.6826Z" fill="black"/>
</g>
<path d="M356.346 92.8561C352.305 92.6769 348.274 93.3866 344.537 94.9351C340.801 96.4836 337.449 98.8332 334.719 101.818C330.109 107.205 327.646 114.103 327.804 121.193V381.924C327.804 393.972 320.108 404.372 308.929 409.293C304.378 411.261 299.473 412.278 294.515 412.281H72.5381C72.2073 412.291 71.8785 412.225 71.5775 412.088C71.2765 411.95 71.0114 411.745 70.8031 411.487C70.5618 411.215 70.3887 410.89 70.298 410.538C70.2073 410.185 70.2017 409.817 70.2816 409.462C70.3615 409.107 70.5247 408.776 70.7576 408.497C70.9904 408.218 71.2864 407.998 71.621 407.855C83.4938 402.637 90.1243 394.22 90.1243 381.924V121.193C90.1243 104.421 104.996 90.8356 123.425 90.8356H339.689C340.656 90.8356 341.622 90.8356 342.577 90.8356C342.807 90.8604 343.04 90.8604 343.271 90.8356H345.204C349.009 90.84 352.782 91.5243 356.346 92.8561Z" fill="#FAFAFA"/>
<path opacity="0.35" d="M327.804 317.355V381.924C327.804 393.972 320.107 404.372 308.929 409.293C304.378 411.261 299.473 412.278 294.515 412.281H72.5381C72.2073 412.291 71.8785 412.225 71.5775 412.088C71.2765 411.95 71.0114 411.745 70.8031 411.487C70.5618 411.215 70.3887 410.89 70.298 410.538C70.2073 410.185 70.2017 409.817 70.2816 409.462C70.3615 409.107 70.5247 408.776 70.7576 408.497C70.9904 408.218 71.2864 407.998 71.621 407.855C83.4938 402.637 90.1243 394.22 90.1243 381.924V339.357C146.39 355.558 204.701 364.706 255.687 351.753C282.853 344.836 306.153 332.093 327.804 317.355Z" fill="#CCEEFF"/>
<path d="M308.929 409.293C304.378 411.261 299.473 412.278 294.515 412.281H77.7433C75.3911 412.276 73.0468 412.01 70.7535 411.487C63.8297 409.911 57.6057 406.127 53.0189 400.705C48.432 395.284 45.7309 388.518 45.3223 381.428C45.2727 380.758 45.248 380.064 45.248 379.345V369.974C45.2063 369.119 45.3336 368.265 45.6226 367.459C45.9117 366.654 46.3567 365.913 46.9323 365.28C47.5079 364.646 48.2027 364.133 48.977 363.769C49.7513 363.404 50.5899 363.196 51.4446 363.157H271.079C271.934 363.196 272.773 363.404 273.547 363.769C274.321 364.133 275.016 364.646 275.592 365.28C276.167 365.913 276.612 366.654 276.901 367.459C277.19 368.265 277.318 369.119 277.276 369.974V379.345C277.263 382.572 277.658 385.788 278.453 388.915C279.765 394.386 282.622 399.364 286.683 403.257C289.342 405.836 292.489 407.859 295.94 409.207C296.061 409.265 296.185 409.314 296.312 409.355C300.449 410.455 304.803 410.434 308.929 409.293Z" fill="#CCEEFF"/>
<path d="M299.844 158.987H113.114C111.765 158.984 110.473 158.446 109.52 157.491C108.568 156.536 108.033 155.242 108.033 153.893C108.036 152.546 108.572 151.255 109.525 150.302C110.477 149.35 111.767 148.814 113.114 148.81H299.844C301.191 148.814 302.482 149.35 303.434 150.302C304.386 151.255 304.922 152.546 304.926 153.893C304.926 155.242 304.391 156.536 303.438 157.491C302.486 158.446 301.193 158.984 299.844 158.987Z" fill="#E6E6E6"/>
<path d="M299.844 178.857H113.114C111.766 178.857 110.474 178.322 109.521 177.369C108.568 176.416 108.033 175.123 108.033 173.775C108.036 172.428 108.572 171.138 109.525 170.185C110.477 169.233 111.767 168.696 113.114 168.693H299.844C301.191 168.696 302.482 169.233 303.434 170.185C304.386 171.138 304.922 172.428 304.926 173.775C304.926 174.443 304.794 175.103 304.539 175.72C304.284 176.337 303.909 176.897 303.437 177.369C302.966 177.841 302.405 178.215 301.789 178.471C301.172 178.726 300.512 178.857 299.844 178.857Z" fill="#E6E6E6"/>
<path d="M113.114 188.563H196.31C197.657 188.567 198.948 189.103 199.9 190.055C200.852 191.008 201.388 192.299 201.392 193.645C201.392 194.995 200.857 196.288 199.904 197.244C198.952 198.199 197.659 198.737 196.31 198.74H113.114C111.808 198.676 110.577 198.111 109.676 197.164C108.774 196.217 108.271 194.959 108.271 193.652C108.271 192.344 108.774 191.086 109.676 190.139C110.577 189.192 111.808 188.628 113.114 188.563Z" fill="#E6E6E6"/>
<path d="M304.913 193.311C304.959 194.005 304.862 194.702 304.628 195.358C304.394 196.013 304.028 196.614 303.553 197.123C303.078 197.631 302.504 198.037 301.866 198.316C301.228 198.594 300.54 198.738 299.844 198.74H216.635C215.287 198.737 213.994 198.199 213.042 197.244C212.089 196.288 211.554 194.995 211.554 193.645C211.557 192.299 212.094 191.008 213.046 190.055C213.998 189.103 215.289 188.567 216.635 188.563H299.671C300.98 188.555 302.245 189.037 303.216 189.916C304.187 190.796 304.792 192.007 304.913 193.311Z" fill="#E6E6E6"/>
<path d="M299.844 218.623H113.114C111.767 218.62 110.477 218.083 109.525 217.131C108.572 216.178 108.036 214.887 108.033 213.541C108.033 212.193 108.568 210.9 109.521 209.947C110.474 208.994 111.766 208.458 113.114 208.458H299.844C300.512 208.458 301.172 208.59 301.789 208.845C302.405 209.101 302.966 209.475 303.437 209.947C303.909 210.419 304.284 210.979 304.539 211.596C304.794 212.212 304.926 212.873 304.926 213.541C304.922 214.887 304.386 216.178 303.434 217.131C302.482 218.083 301.191 218.62 299.844 218.623Z" fill="#E6E6E6"/>
<path d="M299.844 238.506H113.114C111.765 238.502 110.473 237.964 109.52 237.009C108.568 236.054 108.033 234.76 108.033 233.411C108.036 232.064 108.572 230.773 109.525 229.821C110.477 228.868 111.767 228.332 113.114 228.329H299.844C301.191 228.332 302.482 228.868 303.434 229.821C304.386 230.773 304.922 232.064 304.926 233.411C304.926 234.76 304.391 236.054 303.438 237.009C302.486 237.964 301.193 238.502 299.844 238.506Z" fill="#E6E6E6"/>
<path d="M113.114 248.211H156.23C157.579 248.211 158.873 248.746 159.828 249.699C160.783 250.652 161.321 251.945 161.324 253.294C161.324 253.962 161.192 254.624 160.936 255.241C160.68 255.859 160.305 256.42 159.831 256.892C159.358 257.364 158.797 257.738 158.179 257.993C157.561 258.247 156.899 258.377 156.23 258.376H113.387C112.683 258.386 111.985 258.255 111.334 257.991C110.682 257.726 110.09 257.334 109.592 256.838C109.094 256.341 108.701 255.749 108.435 255.098C108.169 254.447 108.037 253.749 108.045 253.046C108.095 251.787 108.623 250.595 109.52 249.711C109.99 249.236 110.55 248.859 111.167 248.601C111.784 248.344 112.445 248.211 113.114 248.211Z" fill="#E6E6E6"/>
<path d="M304.913 253.554C304.844 254.853 304.28 256.076 303.337 256.973C302.395 257.869 301.145 258.371 299.844 258.376H176.568C175.9 258.377 175.239 258.247 174.621 257.992C174.004 257.737 173.443 257.363 172.971 256.891C172.499 256.419 172.125 255.858 171.87 255.24C171.615 254.623 171.485 253.961 171.487 253.294C171.487 251.946 172.022 250.653 172.975 249.7C173.928 248.747 175.22 248.211 176.568 248.211H299.584C300.287 248.203 300.985 248.336 301.636 248.601C302.287 248.867 302.879 249.26 303.375 249.758C303.872 250.256 304.264 250.849 304.528 251.501C304.792 252.152 304.923 252.851 304.913 253.554Z" fill="#E6E6E6"/>
<path d="M299.844 278.259H113.114C111.767 278.255 110.477 277.719 109.525 276.766C108.572 275.814 108.036 274.523 108.033 273.176C108.033 271.828 108.568 270.536 109.521 269.583C110.474 268.629 111.766 268.094 113.114 268.094H299.844C300.512 268.094 301.172 268.225 301.789 268.481C302.405 268.736 302.966 269.111 303.437 269.583C303.909 270.055 304.284 270.615 304.539 271.231C304.794 271.848 304.926 272.509 304.926 273.176C304.922 274.523 304.386 275.814 303.434 276.766C302.482 277.719 301.191 278.255 299.844 278.259Z" fill="#E6E6E6"/>
<path d="M113.114 287.964H242.637C243.983 287.968 245.274 288.504 246.226 289.457C247.178 290.409 247.715 291.7 247.718 293.047C247.718 293.714 247.587 294.375 247.331 294.991C247.076 295.608 246.702 296.168 246.23 296.64C245.758 297.112 245.198 297.487 244.581 297.742C243.965 297.997 243.304 298.129 242.637 298.129H113.114C111.766 298.129 110.474 297.593 109.521 296.64C108.568 295.687 108.033 294.394 108.033 293.047C108.033 291.699 108.568 290.406 109.521 289.453C110.474 288.5 111.766 287.964 113.114 287.964Z" fill="#E6E6E6"/>
<path d="M304.913 293.257C304.865 294.568 304.309 295.809 303.364 296.718C302.418 297.627 301.156 298.133 299.844 298.129H262.962C262.295 298.129 261.634 297.997 261.017 297.742C260.401 297.487 259.841 297.112 259.369 296.64C258.897 296.168 258.523 295.608 258.267 294.991C258.012 294.375 257.881 293.714 257.881 293.047C257.884 291.7 258.42 290.409 259.372 289.457C260.325 288.504 261.615 287.968 262.962 287.964H299.584C300.282 287.959 300.974 288.093 301.621 288.357C302.267 288.62 302.855 289.009 303.35 289.501C303.846 289.993 304.239 290.579 304.507 291.223C304.775 291.868 304.913 292.559 304.913 293.257Z" fill="#E6E6E6"/>
<path d="M299.844 318.024H113.114C111.765 318.021 110.473 317.482 109.52 316.527C108.568 315.572 108.033 314.278 108.033 312.929C108.036 311.582 108.572 310.292 109.525 309.339C110.477 308.387 111.767 307.85 113.114 307.847H299.844C301.191 307.85 302.482 308.387 303.434 309.339C304.386 310.292 304.922 311.582 304.926 312.929C304.926 314.278 304.391 315.572 303.438 316.527C302.486 317.482 301.193 318.021 299.844 318.024Z" fill="#E6E6E6"/>
<path d="M176.332 332.824C176.332 334.172 175.797 335.465 174.844 336.418C173.891 337.371 172.599 337.907 171.251 337.907H113.325C112.009 337.925 110.735 337.446 109.756 336.566C108.778 335.686 108.167 334.47 108.045 333.159C107.998 332.464 108.093 331.767 108.326 331.11C108.56 330.454 108.925 329.852 109.401 329.343C109.876 328.834 110.451 328.428 111.09 328.151C111.728 327.873 112.417 327.73 113.114 327.73H171.251C171.919 327.73 172.581 327.862 173.198 328.118C173.816 328.374 174.376 328.749 174.848 329.223C175.32 329.696 175.695 330.258 175.949 330.876C176.204 331.494 176.334 332.156 176.332 332.824Z" fill="#E6E6E6"/>
<path d="M284.786 136.96H129.547C126.388 136.96 123.357 135.705 121.121 133.472C118.886 131.238 117.628 128.208 117.625 125.048C117.625 121.885 118.881 118.852 121.117 116.616C123.353 114.379 126.385 113.123 129.547 113.123H284.786C287.946 113.126 290.976 114.384 293.209 116.62C295.442 118.856 296.696 121.887 296.696 125.048C296.696 126.612 296.388 128.161 295.79 129.606C295.191 131.052 294.314 132.365 293.208 133.471C292.102 134.577 290.789 135.455 289.344 136.053C287.899 136.652 286.35 136.96 284.786 136.96Z" fill="#524DF2"/>
<path d="M294.614 327.606H194.501C188.813 327.606 184.202 332.218 184.202 337.907C184.202 343.596 188.813 348.207 194.501 348.207H294.614C300.302 348.207 304.913 343.596 304.913 337.907C304.913 332.218 300.302 327.606 294.614 327.606Z" fill="#524DF2"/>
<path d="M317.344 361.669L286.361 345.257C286.203 345.188 286.03 345.162 285.859 345.183C285.689 345.204 285.527 345.271 285.391 345.377C285.255 345.482 285.15 345.622 285.088 345.782C285.025 345.942 285.006 346.116 285.034 346.286L293.388 380.263C293.561 380.982 294.627 380.932 294.986 380.176L300.613 367.607L308.148 377.275C308.433 377.596 308.828 377.796 309.255 377.835C309.682 377.874 310.107 377.748 310.445 377.485C310.783 377.221 311.008 376.839 311.074 376.415C311.14 375.992 311.042 375.559 310.8 375.205L303.265 365.537L316.935 363.181C317.679 363.033 318.001 361.991 317.344 361.669Z" fill="#000F5C"/>
<g style="mix-blend-mode:soft-light" opacity="0.5">
<path d="M308.929 409.293C304.378 411.261 299.473 412.278 294.515 412.281H77.7435C75.3913 412.276 73.047 412.01 70.7536 411.487C63.8299 409.911 57.6059 406.127 53.0191 400.705C48.4322 395.284 45.7311 388.518 45.3225 381.428C60.5869 386.817 76.2395 391.035 92.1445 394.047C149.761 404.905 214.293 400.245 278.33 388.915C279.641 394.386 282.498 399.364 286.559 403.257C289.218 405.836 292.366 407.859 295.817 409.207C295.937 409.265 296.061 409.314 296.189 409.355C300.364 410.478 304.764 410.456 308.929 409.293Z" fill="black"/>
</g>
</g>
<defs>
<clipPath id="clip0">
<rect width="443" height="511" fill="white"/>
</clipPath>
</defs>
</svg>